<svg xmlns="http://www.w3.org/2000/svg" viewBox="0 0 200 200">
  <defs>
    <linearGradient id="grad1" x1="0%" y1="0%" x2="100%" y2="100%">
      <stop offset="0%" style="stop-color:#8e44ad;stop-opacity:1" />
      <stop offset="100%" style="stop-color:#9b59b6;stop-opacity:1" />
    </linearGradient>
  </defs>
  
  <g transform="translate(100 100)">
    <!-- Background hexagon -->
    <path d="M86.6,-50 86.6,50 0,100 -86.6,50 -86.6,-50 0,-100Z" fill="url(#grad1)" />
    
    <!-- Kaleidoscope pattern -->
    <g id="segment">
      <path d="M0,0 L43.3,-25 86.6,-50 43.3,-75Z" fill="#a569bd" fill-opacity="0.7" />
      <path d="M0,0 L43.3,-25 21.65,-37.5 0,-50Z" fill="#8e44ad" fill-opacity="0.8" />
      <path d="M0,0 L21.65,-37.5 0,-75 -21.65,-37.5Z" fill="#9b59b6" fill-opacity="0.6" />
    </g>
    
    <use href="#segment" transform="rotate(60)" />
    <use href="#segment" transform="rotate(120)" />
    <use href="#segment" transform="rotate(180)" />
    <use href="#segment" transform="rotate(240)" />
    <use href="#segment" transform="rotate(300)" />
    
    <!-- Central hexagon -->
    <path d="M0,-30 25.98,-15 25.98,15 0,30 -25.98,15 -25.98,-15Z" fill="#d2b4de" fill-opacity="0.9" />
    
    <!-- Mesh overlay -->
    <g stroke="#ffffff" stroke-width="0.5" fill="none">
      <path d="M-86.6,50 0,0 86.6,50" />
      <path d="M-86.6,-50 0,0 86.6,-50" />
      <path d="M0,-100 0,0 0,100" />
    </g>
  </g>
</svg>
